<svg width="395" height="56" fill="none" xmlns="http://www.w3.org/2000/svg"><mask id="a" style="mask-type:alpha" maskUnits="userSpaceOnUse" x="0" y="0" width="395" height="48"><path fill="#C4C4C4" d="M0 0h395v48H0z"/></mask><g mask="url(#a)"><path d="M260.456-436.911c131.116-60.206 218.007 25.987 242.782 71.599 16.516-46.142 117.262-105.673 204.796-79.554 186.627 55.687 145.739 229.285 128.822 265.709-48.035 103.42-275.813 414.211-312.148 437.546C488.375 281.725 273.67 16.546 224.124-75.737 174.576-168.02 83.739-355.766 260.456-436.91Z" fill="#C3C1CB"/><path d="M-175.941 291.818c26.791 68.402 121.285 85.503 165.183 85.503l-.068 54.41c-.036 28.502 69.872 5.183 92.776-41.455 76.576 16.841 420.63-10.365 446.352-160.642 11.536-67.4-14.608-138.618-111.296-193.029-96.687-54.41-301.821-43.39-427.355 14.25-172.109 79.026-199.08 155.46-165.592 240.963Z" fill="#100A30"/></g></svg>