<svg width="395" height="56" viewBox="0 0 395 56" fill="none" xmlns="http://www.w3.org/2000/svg">
<mask id="mask0_23205_3" style="mask-type:alpha" maskUnits="userSpaceOnUse" x="0" y="0" width="395" height="48">
<rect width="395" height="48" fill="#C4C4C4"/>
</mask>
<g mask="url(#mask0_23205_3)">
<path d="M260.456 -436.911C391.572 -497.117 478.463 -410.924 503.238 -365.312C519.754 -411.454 620.5 -470.985 708.034 -444.866C894.661 -389.179 853.773 -215.581 836.856 -179.157C788.821 -75.7367 561.043 235.054 524.708 258.389C488.375 281.725 273.67 16.5461 224.124 -75.7367C174.576 -168.02 83.7392 -355.766 260.456 -436.911Z" fill="#C3C1CB"/>
<path d="M-175.941 291.818C-149.15 360.22 -54.656 377.321 -10.7577 377.321L-10.8259 431.731C-10.8616 460.233 59.0463 436.914 81.9498 390.276C158.526 407.117 502.58 379.911 528.302 229.634C539.838 162.234 513.694 91.0163 417.006 36.605C320.319 -17.8059 115.185 -6.78437 -10.3487 50.8554C-182.458 129.881 -209.429 206.315 -175.941 291.818Z" fill="#100A30"/>
</g>
</svg>
